<?xml version="1.0" encoding="UTF-8" standalone="no"?>
<!DOCTYPE svg PUBLIC "-//W3C//DTD SVG 1.1//EN"
 "http://www.w3.org/Graphics/SVG/1.1/DTD/svg11.dtd">
<!-- Generated by graphviz version 2.40.1 (20161225.0304)
 -->
<!-- Title: dependencies Pages: 1 -->
<svg width="504pt" height="287pt"
 viewBox="0.00 0.00 504.00 287.00" xmlns="http://www.w3.org/2000/svg" xmlns:xlink="http://www.w3.org/1999/xlink">
<g id="graph0" class="graph" transform="scale(1 1) rotate(0) translate(4 283)">
<title>dependencies</title>
<polygon fill="#ffffff" stroke="transparent" points="-4,4 -4,-283 500,-283 500,4 -4,4"/>
<text text-anchor="start" x="227.0091" y="-42.4" font-family="sans-serif" font-weight="bold" font-size="14.00" fill="#000000">Legend</text>
<polygon fill="#ffffb3" stroke="transparent" points="14,-10 14,-30 34,-30 34,-10 14,-10"/>
<text text-anchor="start" x="37.629" y="-15.4" font-family="sans-serif" font-size="14.00" fill="#000000"> &#160;Declarations</text>
<polygon fill="#8dd3c7" stroke="transparent" points="127,-10 127,-30 147,-30 147,-10 127,-10"/>
<text text-anchor="start" x="150.7251" y="-15.4" font-family="sans-serif" font-size="14.00" fill="#000000"> &#160;Module</text>
<polygon fill="#80b1d3" stroke="transparent" points="213,-10 213,-30 233,-30 233,-10 213,-10"/>
<text text-anchor="start" x="236.7812" y="-15.4" font-family="sans-serif" font-size="14.00" fill="#000000"> &#160;Bootstrap</text>
<polygon fill="#fdb462" stroke="transparent" points="310,-10 310,-30 330,-30 330,-10 310,-10"/>
<text text-anchor="start" x="333.6732" y="-15.4" font-family="sans-serif" font-size="14.00" fill="#000000"> &#160;Providers</text>
<polygon fill="#fb8072" stroke="transparent" points="406,-10 406,-30 426,-30 426,-10 406,-10"/>
<text text-anchor="start" x="429.7258" y="-15.4" font-family="sans-serif" font-size="14.00" fill="#000000"> &#160;Exports</text>
<g id="clust1" class="cluster">
<title>cluster_AppModule</title>
<polygon fill="none" stroke="#000000" stroke-dasharray="1,5" points="190,-146 190,-271 306,-271 306,-146 190,-146"/>
</g>
<g id="clust3" class="cluster">
<title>cluster_AppModule_imports</title>
<polygon fill="none" stroke="#000000" points="198,-154 198,-206 298,-206 298,-154 198,-154"/>
</g>
<g id="clust7" class="cluster">
<title>cluster_TestModule</title>
<polygon fill="none" stroke="#000000" stroke-dasharray="1,5" points="175,-70 175,-138 321,-138 321,-70 175,-70"/>
</g>
<g id="clust12" class="cluster">
<title>cluster_TestModule_providers</title>
<polygon fill="none" stroke="#000000" points="183,-78 183,-130 313,-130 313,-78 183,-78"/>
</g>
<!-- TestModule -->
<g id="node1" class="node">
<title>TestModule</title>
<polygon fill="#8dd3c7" stroke="#000000" points="289.6529,-198 286.6529,-202 265.6529,-202 262.6529,-198 206.3471,-198 206.3471,-162 289.6529,-162 289.6529,-198"/>
<text text-anchor="middle" x="248" y="-175.8" font-family="Times,serif" font-size="14.00" fill="#000000">TestModule</text>
</g>
<!-- AppModule -->
<g id="node2" class="node">
<title>AppModule</title>
<polygon fill="#8dd3c7" stroke="#000000" points="289.6571,-263 286.6571,-267 265.6571,-267 262.6571,-263 206.3429,-263 206.3429,-227 289.6571,-227 289.6571,-263"/>
<text text-anchor="middle" x="248" y="-240.8" font-family="Times,serif" font-size="14.00" fill="#000000">AppModule</text>
</g>
<!-- TestModule&#45;&gt;AppModule -->
<g id="edge1" class="edge">
<title>TestModule&#45;&gt;AppModule</title>
<path fill="none" stroke="#000000" d="M248,-198.1061C248,-198.1061 248,-216.991 248,-216.991"/>
<polygon fill="#000000" stroke="#000000" points="244.5001,-216.9909 248,-226.991 251.5001,-216.991 244.5001,-216.9909"/>
</g>
<!-- TestService -->
<g id="node3" class="node">
<title>TestService</title>
<ellipse fill="#fdb462" stroke="#000000" cx="248" cy="-104" rx="56.7348" ry="18"/>
<text text-anchor="middle" x="248" y="-99.8" font-family="Times,serif" font-size="14.00" fill="#000000">TestService</text>
</g>
<!-- TestService&#45;&gt;TestModule -->
<g id="edge2" class="edge">
<title>TestService&#45;&gt;TestModule</title>
<path fill="none" stroke="#000000" d="M248,-122.0109C248,-122.0109 248,-151.855 248,-151.855"/>
<polygon fill="#000000" stroke="#000000" points="244.5001,-151.8549 248,-161.855 251.5001,-151.855 244.5001,-151.8549"/>
</g>
</g>
</svg>
